<?xml version="1.0" standalone="no"?>
<!DOCTYPE svg PUBLIC "-//W3C//DTD SVG 20010904//EN"
 "http://www.w3.org/TR/2001/REC-SVG-20010904/DTD/svg10.dtd">
<svg version="1.0" xmlns="http://www.w3.org/2000/svg"
 width="70.000000pt" height="70.000000pt" viewBox="0 0 70.000000 70.000000"
 preserveAspectRatio="xMidYMid meet">

<g transform="translate(0.000000,70.000000) scale(0.100000,-0.100000)"
fill="#000000" stroke="none">
<path d="M260 684 c-117 -31 -214 -130 -245 -249 -19 -74 -19 -96 0 -170 32
-125 130 -220 258 -251 116 -29 235 5 321 92 87 86 121 205 92 321 -31 128
-126 226 -251 258 -72 18 -103 18 -175 -1z m120 -148 c0 -14 9 -31 21 -39 36
-26 69 -80 69 -113 0 -38 -42 -94 -71 -94 -10 0 -19 -7 -19 -15 0 -19 53 -20
69 -1 6 8 31 19 55 25 24 6 51 13 60 17 26 10 19 -21 -11 -54 -16 -16 -40 -44
-54 -61 l-27 -31 -124 0 c-141 0 -167 10 -194 76 -21 51 -19 54 45 54 50 0 59
-3 64 -20 4 -15 14 -20 41 -20 25 0 36 4 36 15 0 9 -9 15 -25 15 -30 0 -30 -3
-5 54 18 40 19 51 9 88 -6 24 -18 56 -26 72 l-15 29 31 -5 c25 -4 31 -1 31 14
0 11 7 18 20 18 15 0 20 -7 20 -24z m-85 -113 c4 -21 1 -48 -6 -64 -11 -27
-15 -29 -65 -29 -30 0 -54 3 -54 7 0 4 21 40 48 80 51 79 63 80 77 6z"/>
</g>
</svg>
