<svg id="svg" version="1.1" xmlns="http://www.w3.org/2000/svg" xmlns:xlink="http://www.w3.org/1999/xlink" width="400" height="400" viewBox="0, 0, 400,400"><g id="svgg"><path id="path0" d="M203.968 80.252 C 199.691 81.090,196.033 84.862,195.191 89.301 C 195.039 90.101,194.915 93.866,194.915 97.668 C 194.915 104.135,194.883 104.568,194.421 104.390 C 194.149 104.286,188.079 102.614,180.932 100.675 C 173.785 98.736,167.319 96.974,166.563 96.760 C 163.418 95.868,163.507 96.313,168.481 106.323 C 184.843 139.253,191.488 167.207,187.550 186.545 C 185.466 196.774,178.528 211.061,167.905 226.999 C 164.434 232.206,164.341 232.446,165.383 233.487 L 166.076 234.181 180.496 234.181 L 194.915 234.181 194.915 245.339 L 194.915 256.497 179.308 256.492 C 161.537 256.487,161.388 256.472,157.062 254.338 C 150.153 250.929,145.763 243.818,145.763 236.035 C 145.763 233.905,145.651 233.017,145.323 232.549 L 144.883 231.921 115.010 231.921 C 89.552 231.921,85.055 231.981,84.588 232.325 C 84.089 232.693,84.045 233.052,84.101 236.350 C 84.613 266.708,105.906 293.078,135.593 300.120 C 143.262 301.939,139.247 301.836,202.260 301.836 L 259.463 301.836 262.168 301.088 C 274.667 297.631,281.522 290.695,297.442 265.395 C 308.180 248.330,311.193 245.382,324.786 238.637 C 327.620 237.231,330.069 235.923,330.229 235.731 C 330.414 235.508,330.491 232.766,330.443 228.083 L 330.367 220.784 329.637 220.374 C 328.951 219.989,327.031 220.506,298.062 228.879 L 267.218 237.793 261.639 243.402 C 253.205 251.882,250.372 254.076,245.910 255.585 L 243.644 256.351 230.579 256.437 L 217.514 256.523 217.514 245.352 L 217.514 234.181 226.546 234.181 L 235.579 234.181 237.493 232.521 C 250.350 221.373,262.975 204.117,266.890 192.341 C 272.313 176.033,266.333 158.821,247.701 137.117 C 239.518 127.584,222.829 112.504,219.128 111.298 L 217.655 110.818 217.514 99.689 L 217.373 88.559 216.471 86.655 C 214.166 81.790,209.171 79.232,203.968 80.252 M151.893 123.666 C 151.188 124.445,98.645 206.719,98.440 207.365 C 98.334 207.698,98.448 208.227,98.712 208.630 L 99.166 209.322 126.832 209.322 C 153.757 209.322,154.511 209.308,155.003 208.779 C 156.604 207.060,163.157 194.568,165.236 189.274 C 170.356 176.236,168.713 160.486,159.740 136.578 C 155.074 124.147,153.621 121.756,151.893 123.666 " stroke="none" fill="#fbfbfb" fill-rule="evenodd"></path><path id="path1" d="M187.853 0.181 C 70.202 8.264,-14.380 112.048,1.866 228.390 C 17.089 337.410,118.587 413.467,228.390 398.134 C 337.715 382.868,413.768 280.977,398.018 170.878 C 384.995 79.841,311.449 10.057,218.644 0.680 C 214.228 0.234,192.263 -0.122,187.853 0.181 M211.018 80.966 C 216.832 83.688,217.797 86.522,217.797 100.877 L 217.797 110.689 219.173 111.146 C 223.068 112.440,240.804 128.638,248.885 138.282 C 266.036 158.750,272.024 175.435,267.643 190.551 C 264.124 202.697,252.894 218.613,238.636 231.665 L 235.887 234.181 226.842 234.181 L 217.797 234.181 217.797 245.339 L 217.797 256.497 229.167 256.492 C 248.246 256.482,248.616 256.330,261.723 243.089 L 267.090 237.667 297.994 228.735 C 331.777 218.970,330.103 219.355,330.610 221.246 C 330.908 222.359,330.814 235.023,330.503 235.604 C 330.345 235.900,328.279 237.075,325.913 238.216 C 311.304 245.258,308.506 248.001,296.611 266.949 C 282.518 289.400,275.222 297.033,264.517 300.530 C 259.858 302.051,261.663 302.012,200.424 301.919 L 143.362 301.832 139.867 301.176 C 109.685 295.511,87.825 272.416,84.326 242.497 C 83.617 236.442,83.725 232.946,84.643 232.224 C 85.531 231.525,143.244 231.275,144.755 231.964 C 145.694 232.391,145.815 232.862,145.903 236.414 C 146.097 244.305,150.451 251.069,157.486 254.410 C 161.594 256.361,161.161 256.321,178.884 256.429 L 194.915 256.527 194.915 245.354 L 194.915 234.181 180.319 234.181 C 161.628 234.181,162.557 234.783,168.182 226.308 C 177.568 212.163,183.646 200.169,186.560 190.038 C 192.292 170.112,184.266 135.717,165.863 101.341 C 164.076 98.004,163.855 97.066,164.727 96.520 C 165.153 96.253,177.987 99.541,191.093 103.274 C 192.952 103.804,194.566 104.237,194.678 104.237 C 194.791 104.237,194.922 100.646,194.970 96.257 L 195.056 88.277 195.886 86.584 C 198.732 80.778,205.360 78.317,211.018 80.966 M153.777 123.198 C 154.602 123.574,155.645 125.752,158.630 133.333 C 167.073 154.777,170.114 172.351,167.329 183.616 C 165.909 189.361,157.392 206.759,154.918 208.969 L 154.206 209.605 126.820 209.605 C 96.301 209.605,98.305 209.734,98.305 207.755 C 98.305 206.788,151.371 123.726,152.300 123.239 C 153.109 122.815,152.945 122.819,153.777 123.198 " stroke="none" fill="#2484e4" fill-rule="evenodd"></path><path id="path2" d="M188.484 172.316 C 188.484 172.860,188.542 173.083,188.613 172.811 C 188.684 172.539,188.684 172.094,188.613 171.822 C 188.542 171.550,188.484 171.773,188.484 172.316 M188.484 177.684 C 188.484 178.227,188.542 178.450,188.613 178.178 C 188.684 177.906,188.684 177.461,188.613 177.189 C 188.542 176.917,188.484 177.140,188.484 177.684 M113.206 209.534 C 120.703 209.576,132.970 209.576,140.466 209.534 C 147.963 209.492,141.829 209.458,126.836 209.458 C 111.843 209.458,105.710 209.492,113.206 209.534 M242.223 228.037 L 240.537 229.802 242.302 228.116 C 243.273 227.189,244.068 226.394,244.068 226.351 C 244.068 226.142,243.789 226.397,242.223 228.037 M100.233 231.850 C 108.363 231.892,121.584 231.892,129.612 231.850 C 137.640 231.809,130.989 231.774,114.831 231.774 C 98.672 231.775,92.104 231.809,100.233 231.850 M83.964 237.853 C 83.964 238.397,84.022 238.619,84.093 238.347 C 84.164 238.076,84.164 237.631,84.093 237.359 C 84.022 237.087,83.964 237.309,83.964 237.853 M260.734 244.209 C 259.577 245.374,258.694 246.328,258.771 246.328 C 258.849 246.328,259.859 245.374,261.017 244.209 C 262.174 243.044,263.058 242.090,262.980 242.090 C 262.903 242.090,261.892 243.044,260.734 244.209 " stroke="none" fill="#94c4f4" fill-rule="evenodd"></path><path id="path3" d="M217.642 100.565 C 217.642 106.236,217.680 108.556,217.726 105.720 C 217.772 102.885,217.772 98.245,217.726 95.410 C 217.680 92.574,217.642 94.894,217.642 100.565 M233.616 122.687 C 233.616 122.736,234.029 123.149,234.534 123.605 L 235.452 124.435 234.622 123.517 C 233.849 122.661,233.616 122.469,233.616 122.687 M240.537 129.379 C 241.929 130.777,243.131 131.921,243.209 131.921 C 243.286 131.921,242.211 130.777,240.819 129.379 C 239.427 127.980,238.225 126.836,238.147 126.836 C 238.070 126.836,239.145 127.980,240.537 129.379 M188.508 174.859 C 188.508 175.869,188.560 176.282,188.622 175.777 C 188.685 175.272,188.685 174.446,188.622 173.941 C 188.560 173.436,188.508 173.849,188.508 174.859 M330.631 228.390 C 330.631 232.274,330.671 233.902,330.719 232.008 C 330.768 230.114,330.768 226.936,330.720 224.946 C 330.671 222.956,330.631 224.506,330.631 228.390 M245.043 225.212 L 243.927 226.412 245.127 225.296 C 245.787 224.682,246.328 224.141,246.328 224.095 C 246.328 223.881,246.082 224.095,245.043 225.212 M239.533 230.720 L 238.559 231.780 239.619 230.806 C 240.605 229.900,240.808 229.661,240.592 229.661 C 240.545 229.661,240.068 230.138,239.533 230.720 M217.643 245.339 C 217.643 251.554,217.680 254.056,217.726 250.899 C 217.771 247.743,217.771 242.658,217.726 239.600 C 217.680 236.542,217.643 239.124,217.643 245.339 M265.095 239.619 L 264.266 240.537 265.184 239.707 C 265.689 239.251,266.102 238.838,266.102 238.789 C 266.102 238.571,265.869 238.763,265.095 239.619 M256.056 248.658 L 255.226 249.576 256.144 248.747 C 256.649 248.290,257.062 247.877,257.062 247.829 C 257.062 247.610,256.829 247.802,256.056 248.658 M103.390 282.345 C 104.391 283.355,105.273 284.181,105.351 284.181 C 105.429 284.181,104.673 283.355,103.672 282.345 C 102.671 281.335,101.789 280.508,101.711 280.508 C 101.634 280.508,102.389 281.335,103.390 282.345 M278.814 291.102 C 277.656 292.267,276.773 293.220,276.850 293.220 C 276.928 293.220,277.939 292.267,279.096 291.102 C 280.254 289.936,281.137 288.983,281.059 288.983 C 280.982 288.983,279.971 289.936,278.814 291.102 " stroke="none" fill="#63a9ec" fill-rule="evenodd"></path><path id="path4" d="" stroke="none" fill="#84bcec" fill-rule="evenodd"></path></g></svg>